<?xml version="1.0" encoding="utf-8"?>
<!-- Generator: Adobe Illustrator 22.1.0, SVG Export Plug-In . SVG Version: 6.00 Build 0)  -->
<svg version="1.1" id="Слой_1" xmlns="http://www.w3.org/2000/svg" xmlns:xlink="http://www.w3.org/1999/xlink" x="0px" y="0px"
	 viewBox="0 0 10 10" style="enable-background:new 0 0 10 10;" xml:space="preserve">
<style type="text/css">
	.st0{fill:#7E8AAE;}
</style>
<path class="st0" d="M5,0C2.2,0,0,2.2,0,5s2.2,5,5,5s5-2.2,5-5S7.8,0,5,0z M7,6.4c0.2,0.2,0.2,0.2,0.2,0.4c0,0.2,0,0.3-0.1,0.4
	S6.9,7.3,6.7,7.3C6.6,7.2,6.5,7.2,6.4,7L5,5.6L3.6,7C3.5,7.2,3.4,7.2,3.3,7.3c-0.2,0-0.3,0-0.4-0.1C2.8,7,2.7,6.9,2.7,6.7
	c0-0.1,0.1-0.2,0.2-0.4L4.4,5L3,3.6C2.8,3.5,2.8,3.4,2.7,3.3c0-0.2,0-0.3,0.1-0.4s0.3-0.2,0.4-0.1c0.1,0,0.2,0.1,0.4,0.2L5,4.4
	L6.4,3c0.2-0.2,0.2-0.2,0.4-0.2c0.2,0,0.3,0,0.4,0.1s0.2,0.3,0.1,0.4c0,0.1-0.1,0.2-0.2,0.4L5.6,5L7,6.4z"/>
</svg>
