<?xml version="1.0" encoding="utf-8"?>
<!-- Generator: Adobe Illustrator 22.1.0, SVG Export Plug-In . SVG Version: 6.00 Build 0)  -->
<svg version="1.1" id="Слой_1" xmlns="http://www.w3.org/2000/svg" xmlns:xlink="http://www.w3.org/1999/xlink" x="0px" y="0px"
	 viewBox="0 0 22 22" style="enable-background:new 0 0 22 22;" xml:space="preserve">
<style type="text/css">
	.st0{fill:#7E8AAE;}
</style>
<path class="st0" d="M21.4,18.8L16.6,14c0,0-0.1,0-0.1-0.1c2.7-4.2,1.6-9.8-2.6-12.5S4.2-0.1,1.5,4.1s-1.6,9.8,2.6,12.5
	c3,2,6.9,2,9.9,0c0,0,0,0.1,0.1,0.1l4.8,4.8c0.7,0.7,1.9,0.7,2.6-0.1C22.1,20.6,22.1,19.5,21.4,18.8z M9,14.9
	c-3.3,0-5.9-2.6-5.9-5.9S5.8,3.1,9,3.1s5.9,2.6,5.9,5.9S12.3,14.9,9,14.9z"/>
</svg>
